<?xml version="1.0" encoding="utf-8"?>
<!-- Generator: Adobe Illustrator 25.4.1, SVG Export Plug-In . SVG Version: 6.00 Build 0)  -->
<svg version="1.1" id="Layer_1" xmlns="http://www.w3.org/2000/svg" xmlns:xlink="http://www.w3.org/1999/xlink" x="0px" y="0px"
	 viewBox="0 0 30 21.8" style="enable-background:new 0 0 30 21.8;" xml:space="preserve">
<path d="M29.1,16.1h-0.5v-3.8c0-1-0.8-1.9-1.9-1.9v-8c0-1-0.8-1.9-1.9-1.9H5.1c-1,0-1.9,0.8-1.9,1.9v8c-1,0-1.9,0.8-1.9,1.9v3.8H0.9
	c-0.3,0-0.5,0.2-0.5,0.5v1.9c0,0.3,0.2,0.5,0.5,0.5h0.5v1.9c0,0.3,0.2,0.5,0.5,0.5h1.4c0.2,0,0.4-0.2,0.5-0.4l0.4-2H26l0.4,2
	c0,0.2,0.2,0.4,0.5,0.4h1.4c0.3,0,0.5-0.2,0.5-0.5v-2h0.5c0.3,0,0.5-0.2,0.5-0.5v-1.9C29.6,16.3,29.4,16.1,29.1,16.1z M4.2,2.4
	c0-0.5,0.4-0.9,0.9-0.9h19.8c0.5,0,0.9,0.4,0.9,0.9v8h-0.9V8.5c0-1-0.8-1.9-1.9-1.9h-5.6c-1,0-1.9,0.8-1.9,1.9v1.9h-0.9V8.5
	c0-1-0.8-1.9-1.9-1.9H7c-1,0-1.9,0.8-1.9,1.9v1.9H4.2V2.4z M23.9,8.5v1.9h-7.5V8.5c0-0.5,0.4-0.9,0.9-0.9H23
	C23.5,7.6,23.9,8,23.9,8.5z M13.6,8.5v1.9H6.1V8.5C6.1,8,6.5,7.6,7,7.6h5.6C13.2,7.6,13.6,8,13.6,8.5z M2.3,12.3
	c0-0.5,0.4-0.9,0.9-0.9h23.5c0.5,0,0.9,0.4,0.9,0.9v3.8H2.3V12.3z M2.8,20.3H2.3v-1.4h0.8L2.8,20.3z M27.7,20.3h-0.6l-0.2-1.4h0.8
	C27.7,18.9,27.7,20.3,27.7,20.3z M28.7,18H1.3v-0.9h27.3V18H28.7z"/>
</svg>
