<?xml version="1.0" encoding="utf-8"?>
<!-- Generator: Adobe Illustrator 25.4.1, SVG Export Plug-In . SVG Version: 6.00 Build 0)  -->
<svg version="1.1" id="Capa_1" xmlns="http://www.w3.org/2000/svg" xmlns:xlink="http://www.w3.org/1999/xlink" x="0px" y="0px"
	 viewBox="0 0 30 30" style="enable-background:new 0 0 30 30;" xml:space="preserve">
<g>
	<path d="M28.2,2.9c-2-2-5.3-2-7.3,0c-0.2,0.2-0.2,0.6,0,0.8c0.2,0.2,0.6,0.2,0.8,0c1.6-1.6,4.1-1.6,5.7,0c0.1,0.1,0.3,0.2,0.4,0.2
		c0.1,0,0.3-0.1,0.4-0.2C28.4,3.4,28.4,3.1,28.2,2.9L28.2,2.9z"/>
	<path d="M23.6,5.6c0.5-0.5,1.4-0.5,1.9,0c0.2,0.2,0.6,0.2,0.8,0c0.2-0.2,0.2-0.6,0-0.8c-1-1-2.5-1-3.5,0c-0.2,0.2-0.2,0.6,0,0.8
		c0.1,0.1,0.3,0.2,0.4,0.2C23.3,5.7,23.5,5.7,23.6,5.6z"/>
	<path d="M14.5,15.6c-1.6,0-2.8,1.3-2.8,2.8s1.3,2.8,2.8,2.8c1.6,0,2.8-1.3,2.8-2.8S16.1,15.6,14.5,15.6z M14.5,20.1
		c-0.9,0-1.7-0.8-1.7-1.7s0.8-1.7,1.7-1.7c0.9,0,1.7,0.8,1.7,1.7S15.4,20.1,14.5,20.1z"/>
	<path d="M26.8,26.1h-1.7V10.3l0.8,0.6c0.1,0.1,0.2,0.1,0.4,0.1c0.2,0,0.3-0.1,0.4-0.2c0.2-0.2,0.2-0.6-0.1-0.8L14.9,0.5
		c-0.2-0.2-0.5-0.2-0.7,0L2.4,10.1c-0.2,0.2-0.3,0.6-0.1,0.8c0.2,0.2,0.6,0.3,0.8,0.1l0.8-0.6v15.8H2.2c-0.3,0-0.6,0.3-0.6,0.6V29
		c0,0.3,0.3,0.6,0.6,0.6h24.6c0.3,0,0.6-0.3,0.6-0.6v-2.3C27.4,26.4,27.1,26.1,26.8,26.1L26.8,26.1z M5.1,9.4l9.5-7.7L24,9.4v16.8
		h-2.5v-14c0-0.3-0.3-0.6-0.6-0.6H8.1c-0.3,0-0.6,0.3-0.6,0.6v14H5.1L5.1,9.4z M18.8,26.1c-0.2-2.2-2.1-3.9-4.3-3.9h0
		c-2.2,0-4.1,1.7-4.3,3.9H8.7V12.7h11.7v13.5H18.8z M17.7,26.1h-6.4c0.2-1.6,1.6-2.8,3.2-2.8h0C16.1,23.4,17.5,24.6,17.7,26.1z
		 M26.2,28.5H2.8v-1.2h1.7h3.6h2.6h7.6h2.6h3.6h1.7L26.2,28.5L26.2,28.5z"/>
</g>
</svg>
